<?xml version="1.0" encoding="utf-8"?>
<!-- Generator: Adobe Illustrator 19.0.0, SVG Export Plug-In . SVG Version: 6.00 Build 0)  -->
<svg version="1.1" id="feedfetcher-logo" xmlns="http://www.w3.org/2000/svg" x="0px"
	 y="0px" viewBox="0 0 53 53" enable-background="new 0 0 53 53" xml:space="preserve">
<path id="XMLID_92_" fill="none" stroke="#000000" stroke-width="5" stroke-miterlimit="10" d="M47.5,50.5h-42
	c-1.6569,0-3-1.3431-3-3v-42c0-1.6569,1.3431-3,3-3h42c1.6569,0,3,1.3431,3,3v42C50.5,49.1569,49.1569,50.5,47.5,50.5z"/>
<g id="XMLID_10_">
	<g id="XMLID_7_">
		<path id="XMLID_8_" stroke="#000000" fill="#000000" d="M30.3624,11.1976c-2.1639-0.9271-4.6377-2.576-7.0076-2.576c-3.4008,0-4.8948,2.112-4.8948,5.6677v3.0918
			h8.8625v3.2459H18.46v22.5695h-3.8647V20.6271H7.7418v-3.2459h6.8535v-2.6278c0-6.5445,4.4309-9.3783,8.5016-9.3783
			c2.5248,0,4.9986,0.8759,7.2655,1.9068V11.1976z"/>
	</g>
	<g id="XMLID_4_">
		<path id="XMLID_5_" stroke="#000000" fill="#000000" d="M45.2582,15.6261c-2.1639-0.9271-4.6377-2.576-7.0076-2.576c-3.4008,0-4.8948,2.112-4.8948,5.6677v3.0918
			h8.8625v3.2459h-8.8625V47.625h-3.8647V25.0555h-6.8535v-3.2459h6.8535v-2.6278c0-6.5445,4.4309-9.3783,8.5016-9.3783
			c2.5248,0,4.9986,0.8759,7.2655,1.9068V15.6261z"/>
	</g>
</g>
</svg>
